<svg xmlns="http://www.w3.org/2000/svg" xmlns:se="http://svg-edit.googlecode.com" xmlns:xlink="http://www.w3.org/1999/xlink" xmlns:dc="http://purl.org/dc/elements/1.1/" xmlns:cc="http://creativecommons.org/ns#" xmlns:rdf="http://www.w3.org/1999/02/22-rdf-syntax-ns#" xmlns:inkscape="http://www.inkscape.org/namespaces/inkscape" width="777" height="480" style="">                                    <title>my vector image</title>                                    <!-- Created with Vector Paint - http://www.vectorpaint.yaks.com/ https://chrome.google.com/webstore/detail/hnbpdiengicdefcjecjbnjnoifekhgdo -->                                    <rect id="backgroundrect" width="100%" height="100%" x="0" y="0" fill="#FFFFFF" stroke="none"/>                                <g class="currentLayer" style=""><title>Layer 1</title><path fill="#ffffff" stroke="#b6b6b6" stroke-width="2" stroke-linejoin="round" stroke-dashoffset="" fill-rule="nonzero" marker-start="" marker-mid="" marker-end="" id="svg_1" d="M276.3403126825714,153.41694715156555 L276.3403126825714,153.41694715156555 C276.3403126825714,144.89513715156556 283.0867026825714,137.98684715156554 291.4088026825714,137.98684715156554 L298.2581226825714,137.98684715156554 L298.2581226825714,137.98684715156554 L331.1348326825714,137.98684715156554 L392.7786526825714,137.98684715156554 C396.77508268257145,137.98684715156554 400.60780268257145,139.61250715156555 403.4337026825714,142.50621715156555 C406.2595826825714,145.39992715156555 407.8471526825714,149.32462715156555 407.8471526825714,153.41694715156555 L407.8471526825714,191.99218715156556 L407.8471526825714,191.99218715156556 L407.8471526825714,215.13732715156556 L407.8471526825714,215.13732715156556 C407.8471526825714,223.65913715156555 401.10076268257137,230.56741715156556 392.7786626825714,230.56741715156556 L392.7786726825714,269.6085171515656 L355.9936826825714,269.11763715156553 L292.0937426825714,268.92357715156555 L291.4088026825714,230.56741715156556 C283.08671268257143,230.56741715156556 276.3403126825714,223.65913715156555 276.3403126825714,215.13732715156556 L276.3403126825714,215.13732715156556 L276.3403126825714,191.99218715156556 L276.3403126825714,191.99218715156556 L276.3403126825714,153.41694715156555 z" style="color: rgb(0, 0, 0);" class="selected" stroke-opacity="1" fill-opacity="1"/></g></svg>